<mxfile host="app.diagrams.net" modified="2023-07-05T16:57:32.093Z" agent="Mozilla/5.0 (Macintosh; Intel Mac OS X 10_15_7) AppleWebKit/537.36 (KHTML, like Gecko) Chrome/114.0.0.0 Safari/537.36" version="21.5.2" etag="5rP1nGg19hEe-PUAfcvP" type="github">
  <diagram name="페이지-1" id="Krf-m2-N1lAMIuiFyWgK">
    <mxGraphModel>
      <root>
        <mxCell id="0" />
        <mxCell id="1" parent="0" />
      </root>
    </mxGraphModel>
  </diagram>
</mxfile>
